<?xml version="1.0" encoding="UTF-8"?>
<svg id="Layer_2" data-name="Layer 2" xmlns="http://www.w3.org/2000/svg" viewBox="0 0 1314.04 691.34">
  <defs>
    <style>
      .cls-1 {
        fill: #7c7c7c;
      }

      .cls-2 {
        fill: #369802;
      }

      .cls-3 {
        fill: #fff;
      }

      .cls-4 {
        fill: #172152;
      }

      .cls-5 {
        fill: #001b6b;
      }
    </style>
  </defs>
  <g id="Layer_1-2" data-name="Layer 1">
    <g>
      <g>
        <path class="cls-5" d="M0,552.93V197.98h234.17v53.84H63.61v95.05h157.94v53.12H63.61v99.1h171.28v53.84H0Z"/>
        <path class="cls-5" d="M328.89,399.99v152.94h-61.46v-263h58.84l.71,65.27h-6.43c7.46-22.87,18.46-40.1,32.99-51.69,14.53-11.59,32.67-17.39,54.43-17.39,18.1,0,33.98,3.89,47.64,11.67,13.66,7.78,24.26,19.14,31.8,34.07,7.54,14.93,11.32,33.11,11.32,54.55v166.52h-61.46v-156.99c0-18.1-4.57-32.16-13.7-42.17-9.13-10.01-21.88-15.01-38.23-15.01-10.8,0-20.45,2.34-28.94,7.03-8.5,4.69-15.21,11.55-20.13,20.61-4.92,9.05-7.39,20.25-7.39,33.59Z"/>
        <path class="cls-5" d="M612.28,558.17c-16.84,0-31.96-3.02-45.38-9.05-13.42-6.03-24.02-14.93-31.8-26.68-7.78-11.75-11.67-26.28-11.67-43.59,0-14.93,2.78-27.24,8.34-36.92,5.56-9.69,13.14-17.43,22.75-23.23,9.61-5.8,20.45-10.2,32.52-13.22,12.07-3.02,24.54-5.16,37.4-6.43,15.56-1.75,28.11-3.25,37.64-4.53,9.53-1.27,16.47-3.34,20.84-6.19,4.37-2.86,6.55-7.22,6.55-13.1v-1.43c0-8.42-1.79-15.6-5.36-21.56s-8.78-10.52-15.6-13.7c-6.83-3.17-15.33-4.76-25.49-4.76s-18.78,1.55-26.32,4.65c-7.55,3.1-13.66,7.23-18.34,12.39-4.69,5.16-7.98,10.84-9.89,17.03l-57.41-9.05c4.29-16.04,11.71-29.42,22.27-40.14,10.56-10.72,23.5-18.82,38.83-24.3,15.32-5.48,32.36-8.22,51.1-8.22,13.34,0,26.4,1.59,39.19,4.76,12.78,3.18,24.34,8.3,34.66,15.37,10.32,7.07,18.54,16.36,24.66,27.87,6.11,11.52,9.17,25.61,9.17,42.28v176.52h-59.32v-36.45h-2.14c-3.81,7.47-9.13,14.38-15.96,20.73-6.83,6.35-15.29,11.43-25.37,15.25-10.09,3.81-22.04,5.72-35.85,5.72ZM628.01,512.43c12.7,0,23.7-2.5,32.99-7.5,9.29-5,16.44-11.63,21.44-19.89,5-8.26,7.5-17.31,7.5-27.16v-30.49c-2.07,1.59-5.36,3.06-9.89,4.41-4.53,1.35-9.69,2.54-15.48,3.57-5.8,1.03-11.59,1.99-17.39,2.86-5.8.87-10.92,1.55-15.37,2.02-9.05,1.27-17.27,3.38-24.66,6.31-7.38,2.94-13.22,6.91-17.51,11.91-4.29,5-6.43,11.55-6.43,19.65,0,7.47,1.91,13.74,5.72,18.82,3.81,5.08,9.05,8.93,15.72,11.55,6.67,2.62,14.45,3.93,23.35,3.93Z"/>
        <path class="cls-5" d="M929.03,557.93c-14.29,0-26.44-2.38-36.45-7.15-10.01-4.76-18.19-10.68-24.54-17.75-6.35-7.07-11.43-14.25-15.25-21.56h-3.1v41.45h-60.27V197.98h61.46v134.12h2.14c3.81-6.99,8.81-14.01,15.01-21.08,6.19-7.06,14.25-12.98,24.18-17.75,9.92-4.76,22.27-7.15,37.04-7.15,20.8,0,39.43,5.32,55.86,15.96,16.44,10.64,29.46,26.05,39.07,46.21,9.61,20.17,14.41,44.71,14.41,73.61s-4.69,52.77-14.06,73.02c-9.37,20.25-22.31,35.82-38.83,46.69-16.52,10.88-35.42,16.32-56.7,16.32ZM912.83,506.95c13.5,0,24.93-3.61,34.3-10.84,9.37-7.22,16.52-17.27,21.44-30.14,4.92-12.86,7.38-27.63,7.38-44.31s-2.42-31.6-7.27-44.31c-4.85-12.7-11.95-22.63-21.32-29.78-9.37-7.15-20.89-10.72-34.54-10.72s-24.98,3.5-34.42,10.48c-9.45,6.99-16.68,16.84-21.68,29.54-5,12.71-7.5,27.63-7.5,44.79s2.5,31.88,7.5,44.67c5,12.79,12.27,22.75,21.8,29.9,9.53,7.15,20.96,10.72,34.3,10.72Z"/>
        <path class="cls-5" d="M1126.89,197.98v354.95h-61.46V197.98h61.46Z"/>
        <path class="cls-5" d="M1165.39,552.93v-263h59.56v43.83h2.38c4.76-15.25,12.86-26.92,24.3-35.02,11.43-8.1,24.93-12.15,40.5-12.15,3.65,0,7.5.12,11.55.36s7.5.6,10.36,1.07v56.22c-2.54-.63-6.63-1.27-12.27-1.91-5.64-.63-11.24-.95-16.8-.95-10.96,0-20.84,2.38-29.66,7.15-8.81,4.76-15.76,11.48-20.84,20.13-5.08,8.66-7.62,18.94-7.62,30.85v153.42h-61.46Z"/>
      </g>
      <g>
        <rect class="cls-2" x="975.96" y="0" width="338.09" height="146.8" rx="69.12" ry="69.12"/>
        <circle class="cls-3" cx="1236.58" cy="73.4" r="58.6"/>
      </g>
      <g>
        <path class="cls-1" d="M954.05,673.22c-4.67,0-8.76-1.08-12.26-3.23-3.51-2.15-6.23-5.16-8.18-9.03s-2.91-8.36-2.91-13.48.97-9.71,2.91-13.6,4.67-6.9,8.18-9.06c3.51-2.15,7.6-3.23,12.26-3.23,2.68,0,5.18.35,7.5,1.06,2.32.71,4.4,1.73,6.26,3.07s3.4,2.97,4.65,4.88c1.25,1.91,2.15,4.06,2.69,6.44l-9.44,1.76c-.3-1.33-.79-2.53-1.47-3.61-.68-1.08-1.51-2.02-2.48-2.8-.98-.78-2.11-1.38-3.39-1.81-1.28-.42-2.69-.63-4.22-.63-2.98,0-5.47.78-7.45,2.33-1.99,1.55-3.48,3.64-4.47,6.28-.99,2.63-1.49,5.61-1.49,8.92s.5,6.19,1.49,8.81,2.48,4.71,4.45,6.26c1.97,1.55,4.46,2.33,7.48,2.33,1.57,0,3-.22,4.29-.65,1.29-.44,2.43-1.05,3.41-1.85.98-.8,1.81-1.76,2.48-2.89.68-1.13,1.18-2.37,1.51-3.73l9.4,1.72c-.51,2.44-1.4,4.62-2.66,6.55-1.26,1.93-2.82,3.58-4.68,4.97s-3.95,2.44-6.28,3.16c-2.33.72-4.86,1.08-7.57,1.08Z"/>
        <path class="cls-1" d="M1004.27,673.22c-4.7,0-8.8-1.08-12.31-3.23-3.51-2.15-6.23-5.16-8.18-9.03-1.94-3.87-2.91-8.36-2.91-13.48s.97-9.71,2.91-13.6c1.94-3.88,4.67-6.9,8.18-9.06,3.51-2.15,7.61-3.23,12.31-3.23s8.85,1.08,12.35,3.23c3.51,2.15,6.23,5.17,8.18,9.06,1.94,3.88,2.91,8.42,2.91,13.6s-.97,9.61-2.91,13.48c-1.94,3.87-4.67,6.88-8.18,9.03-3.51,2.15-7.63,3.23-12.35,3.23ZM1004.27,664.87c2.98,0,5.47-.77,7.48-2.33,2-1.55,3.5-3.64,4.49-6.28.99-2.63,1.49-5.56,1.49-8.79s-.5-6.24-1.49-8.88c-.99-2.63-2.49-4.73-4.49-6.3-2-1.57-4.49-2.35-7.48-2.35s-5.46.78-7.43,2.35c-1.97,1.57-3.46,3.67-4.45,6.3-.99,2.64-1.49,5.59-1.49,8.88s.5,6.15,1.49,8.79c.99,2.64,2.48,4.73,4.45,6.28,1.97,1.55,4.45,2.33,7.43,2.33Z"/>
        <path class="cls-1" d="M1035.83,672.19v-49.87h9.44l.18,11.34h-.77c.75-2.77,1.88-5.05,3.39-6.84,1.51-1.79,3.27-3.14,5.28-4.04,2.02-.9,4.13-1.36,6.32-1.36,3.64,0,6.64,1.12,8.99,3.36,2.35,2.24,3.9,5.29,4.65,9.15h-1.31c.66-2.62,1.79-4.86,3.39-6.73,1.6-1.87,3.53-3.3,5.8-4.29,2.27-.99,4.73-1.49,7.38-1.49,2.95,0,5.64.65,8.06,1.94,2.42,1.3,4.34,3.22,5.76,5.78,1.42,2.56,2.12,5.75,2.12,9.58v33.47h-9.85v-32.48c0-3.4-.94-5.86-2.82-7.36-1.88-1.51-4.12-2.26-6.71-2.26-2.08,0-3.88.44-5.4,1.31s-2.69,2.09-3.5,3.64c-.81,1.55-1.22,3.34-1.22,5.35v31.8h-9.71v-33.15c0-2.71-.87-4.88-2.6-6.5-1.73-1.63-3.95-2.44-6.66-2.44-1.84,0-3.55.43-5.13,1.29-1.58.86-2.85,2.12-3.79,3.79-.95,1.67-1.42,3.74-1.42,6.21v30.81h-9.89Z"/>
        <path class="cls-1" d="M1114.96,691.07v-68.75h9.62v7.9h.68c.69-1.2,1.62-2.47,2.78-3.79,1.16-1.32,2.69-2.46,4.61-3.41,1.91-.95,4.31-1.42,7.2-1.42,4.09,0,7.72,1.03,10.86,3.09,3.15,2.06,5.62,5.01,7.43,8.85,1.81,3.84,2.71,8.44,2.71,13.8s-.9,9.92-2.69,13.78c-1.79,3.85-4.26,6.83-7.41,8.92-3.15,2.09-6.78,3.14-10.91,3.14-2.83,0-5.19-.47-7.09-1.42-1.9-.95-3.44-2.09-4.63-3.43-1.19-1.34-2.13-2.63-2.82-3.86h-.45v26.61h-9.89ZM1137.73,664.78c2.8,0,5.18-.75,7.14-2.26,1.96-1.51,3.44-3.58,4.45-6.21s1.51-5.64,1.51-9.01-.5-6.4-1.51-8.99c-1.01-2.59-2.48-4.62-4.43-6.1-1.94-1.48-4.33-2.21-7.16-2.21s-5.22.72-7.18,2.17c-1.96,1.45-3.44,3.45-4.45,6.03-1.01,2.58-1.51,5.61-1.51,9.1s.51,6.5,1.54,9.12c1.02,2.62,2.52,4.67,4.49,6.14s4.34,2.21,7.11,2.21Z"/>
        <path class="cls-1" d="M1184.02,673.22c-3.19,0-6.07-.58-8.63-1.74-2.56-1.16-4.59-2.87-6.08-5.13-1.49-2.26-2.24-5.03-2.24-8.31,0-2.83.55-5.16,1.65-6.98,1.1-1.82,2.57-3.26,4.4-4.31,1.84-1.05,3.91-1.85,6.21-2.39,2.3-.54,4.66-.95,7.07-1.22,2.98-.36,5.38-.66,7.2-.9,1.82-.24,3.16-.62,4.02-1.13.86-.51,1.29-1.36,1.29-2.53v-.27c0-1.84-.36-3.39-1.08-4.67-.72-1.28-1.81-2.27-3.25-2.96-1.45-.69-3.22-1.04-5.33-1.04s-3.99.34-5.56,1.02c-1.57.68-2.84,1.55-3.82,2.62-.98,1.07-1.66,2.21-2.06,3.41l-9.35-1.85c.93-3.04,2.42-5.53,4.45-7.48,2.03-1.94,4.45-3.39,7.25-4.34,2.8-.95,5.8-1.42,8.99-1.42,2.23,0,4.49.27,6.8.81,2.3.54,4.43,1.46,6.37,2.76,1.94,1.3,3.5,3.06,4.68,5.28,1.17,2.23,1.76,5.03,1.76,8.4v33.33h-9.58v-6.87h-.41c-.66,1.3-1.63,2.55-2.89,3.75s-2.88,2.2-4.83,2.98c-1.96.78-4.31,1.17-7.05,1.17ZM1186.19,665.32c2.74,0,5.06-.53,6.96-1.58,1.9-1.05,3.34-2.44,4.34-4.16.99-1.72,1.49-3.55,1.49-5.51v-6.28c-.33.33-.98.63-1.94.9-.96.27-2.06.52-3.3.75-1.24.23-2.46.42-3.66.59-1.2.17-2.26.31-3.16.43-1.81.24-3.49.64-5.04,1.2-1.55.56-2.79,1.36-3.7,2.39-.92,1.04-1.38,2.42-1.38,4.13,0,1.57.4,2.88,1.2,3.93.8,1.05,1.9,1.85,3.32,2.39,1.42.54,3.04.81,4.88.81Z"/>
        <path class="cls-1" d="M1229.09,642.83v29.36h-9.89v-49.87h9.49l.05,12.24h-1.26c1.48-4.46,3.61-7.73,6.41-9.82,2.8-2.09,6.19-3.14,10.16-3.14,3.4,0,6.39.72,8.97,2.17,2.57,1.45,4.58,3.58,6.03,6.39,1.45,2.82,2.17,6.3,2.17,10.46v31.57h-9.85v-30.35c0-3.67-.94-6.53-2.82-8.56-1.88-2.03-4.46-3.05-7.75-3.05-2.23,0-4.23.48-6.01,1.45-1.78.96-3.17,2.38-4.18,4.25-1.01,1.87-1.51,4.17-1.51,6.91Z"/>
        <path class="cls-1" d="M1269.73,690.52l1.9-8.13,2.03.27c1.54.33,2.92.38,4.16.14,1.23-.24,2.31-.87,3.23-1.87.92-1.01,1.66-2.51,2.24-4.49l1.31-4.16-19.02-49.96h10.61l9.89,28.14c1.08,3.01,2,6.02,2.76,9.01.75,3,1.55,5.98,2.39,8.97h-2.98c.84-2.98,1.67-5.98,2.48-8.99s1.75-6.01,2.8-8.99l10.03-28.14h10.48l-21.86,57.18c-.99,2.59-2.22,4.77-3.68,6.53-1.46,1.76-3.18,3.09-5.17,3.97-1.99.89-4.28,1.33-6.87,1.33-1.42,0-2.72-.09-3.91-.27-1.19-.18-2.13-.36-2.82-.54Z"/>
        <path class="cls-1" d="M448.65,673.22c-3.19,0-6.07-.58-8.63-1.74-2.56-1.16-4.59-2.87-6.08-5.13-1.49-2.26-2.24-5.03-2.24-8.31,0-2.83.55-5.16,1.65-6.98,1.1-1.82,2.57-3.26,4.4-4.31,1.84-1.05,3.91-1.85,6.21-2.39,2.3-.54,4.66-.95,7.07-1.22,2.98-.36,5.38-.66,7.2-.9,1.82-.24,3.16-.62,4.02-1.13.86-.51,1.29-1.36,1.29-2.53v-.27c0-1.84-.36-3.39-1.08-4.67-.72-1.28-1.81-2.27-3.25-2.96-1.45-.69-3.22-1.04-5.33-1.04s-3.99.34-5.56,1.02c-1.57.68-2.84,1.55-3.82,2.62-.98,1.07-1.66,2.21-2.06,3.41l-9.35-1.85c.93-3.04,2.42-5.53,4.45-7.48s4.45-3.39,7.25-4.34c2.8-.95,5.8-1.42,8.99-1.42,2.23,0,4.49.27,6.8.81,2.3.54,4.43,1.46,6.37,2.76,1.94,1.3,3.5,3.06,4.68,5.28,1.17,2.23,1.76,5.03,1.76,8.4v33.33h-9.58v-6.87h-.41c-.66,1.3-1.63,2.55-2.89,3.75s-2.88,2.2-4.83,2.98c-1.96.78-4.31,1.17-7.05,1.17ZM450.81,665.32c2.74,0,5.06-.53,6.96-1.58,1.9-1.05,3.34-2.44,4.34-4.16.99-1.72,1.49-3.55,1.49-5.51v-6.28c-.33.33-.98.63-1.94.9-.96.27-2.06.52-3.3.75-1.24.23-2.46.42-3.66.59-1.2.17-2.26.31-3.16.43-1.81.24-3.49.64-5.04,1.2-1.55.56-2.79,1.36-3.7,2.39-.92,1.04-1.38,2.42-1.38,4.13,0,1.57.4,2.88,1.2,3.93.8,1.05,1.9,1.85,3.32,2.39,1.42.54,3.04.81,4.88.81Z"/>
        <path class="cls-4" d="M563.95,656.07l2.15,1.24c-2.95,4.97-7.05,8.89-12.28,11.79-5.24,2.91-11,4.37-17.29,4.37-2.81,0-5.5-.26-8.05-.77-6.82-1.36-12.68-4.52-17.59-9.51-3.45-3.5-6.01-7.43-7.7-11.79-1.61-4.14-2.42-8.65-2.42-13.55,0-2.77.25-5.41.77-7.94,1.33-6.69,4.45-12.5,9.34-17.45,6.75-6.81,15.3-10.22,25.64-10.22.51,0,1,.01,1.49.04,5.65.2,10.91,1.65,15.75,4.32,5.27,2.91,9.38,6.83,12.33,11.79l-7.61,4.4-4.08,2.36c-1.71-3.07-4.13-5.46-7.28-7.19-1.14-.63-2.35-1.14-3.6-1.54-2.18-.71-4.51-1.06-7.01-1.06-.48,0-.95,0-1.42.04-6.03.28-10.94,2.36-14.73,6.23-2.29,2.33-3.93,5.05-4.94,8.15-.72,2.2-1.12,4.61-1.18,7.2-.01.29-.02.58-.02.88,0,6.59,2.04,11.98,6.15,16.15,4.09,4.17,9.48,6.25,16.15,6.25,3.93,0,7.48-.85,10.67-2.59,3.18-1.73,5.58-4.1,7.22-7.1l9.54,5.51Z"/>
        <path class="cls-4" d="M611.08,665.97c-5.04,4.99-11.2,7.48-18.47,7.48s-13.41-2.49-18.41-7.48c-5.02-4.99-7.52-11.1-7.52-18.34s2.5-13.35,7.52-18.34c5.02-4.99,11.15-7.48,18.41-7.48s13.42,2.49,18.47,7.48c5.04,4.99,7.56,11.1,7.56,18.34s-2.53,13.35-7.56,18.34ZM583.14,657.31c2.53,2.54,5.68,3.81,9.48,3.81s6.98-1.27,9.53-3.81c2.55-2.55,3.84-5.77,3.84-9.68s-1.27-7.14-3.84-9.68c-2.55-2.55-5.74-3.81-9.53-3.81s-6.96,1.27-9.48,3.81c-2.53,2.55-3.78,5.77-3.78,9.68s1.26,7.14,3.78,9.68Z"/>
        <path class="cls-4" d="M653.03,623.17h13.95l-18.67,48.92h-14.44l-18.67-48.92h13.95l11.91,34.24,11.97-34.24Z"/>
        <path class="cls-4" d="M703.51,623.17h12.68v48.92h-12.68v-5.77c-3.8,4.76-9.14,7.14-16.01,7.14s-12.16-2.49-16.85-7.48c-4.68-4.99-7.02-11.1-7.02-18.34s2.35-13.35,7.02-18.34c4.68-4.99,10.29-7.48,16.85-7.48,6.88,0,12.21,2.38,16.01,7.14v-5.8ZM680.13,657.56c2.55,2.57,5.8,3.86,9.73,3.86s7.18-1.29,9.78-3.86c2.59-2.57,3.88-5.88,3.88-9.93s-1.3-7.35-3.88-9.93c-2.59-2.57-5.84-3.86-9.78-3.86s-7.17,1.29-9.73,3.86c-2.55,2.57-3.84,5.89-3.84,9.93s1.27,7.36,3.84,9.93Z"/>
        <path class="cls-4" d="M734.06,637.06c0,1.31.87,2.37,2.61,3.18,1.73.82,3.85,1.53,6.34,2.15,2.49.63,4.98,1.41,7.47,2.35,2.49.95,4.59,2.53,6.34,4.75,1.73,2.21,2.6,4.99,2.6,8.31,0,5.03-1.89,8.89-5.65,11.59-3.76,2.71-8.47,4.06-14.1,4.06-10.09,0-16.96-3.88-20.63-11.64l11-6.17c1.44,4.25,4.65,6.36,9.63,6.36,4.52,0,6.78-1.41,6.78-4.21,0-1.3-.87-2.36-2.6-3.18-1.73-.82-3.85-1.55-6.34-2.2-2.49-.65-4.98-1.47-7.47-2.44-2.49-.97-4.61-2.53-6.34-4.64-1.73-2.12-2.6-4.77-2.6-7.97,0-4.82,1.78-8.62,5.35-11.4,3.57-2.77,8.01-4.16,13.31-4.16,3.99,0,7.62.9,10.91,2.69,3.27,1.79,5.86,4.35,7.76,7.68l-10.8,5.87c-1.58-3.33-4.2-4.99-7.85-4.99-1.64,0-2.99.36-4.08,1.07-1.08.72-1.62,1.7-1.62,2.93h-.04Z"/>
        <path class="cls-4" d="M799.28,623.17h12.68v48.92h-12.68v-5.77c-3.8,4.76-9.14,7.14-16.01,7.14s-12.17-2.49-16.85-7.48c-4.68-4.99-7.02-11.1-7.02-18.34s2.35-13.35,7.02-18.34c4.68-4.99,10.29-7.48,16.85-7.48,6.88,0,12.21,2.38,16.01,7.14v-5.8ZM775.91,657.56c2.55,2.57,5.8,3.86,9.73,3.86s7.19-1.29,9.78-3.86c2.59-2.57,3.88-5.88,3.88-9.93s-1.3-7.35-3.88-9.93c-2.59-2.57-5.84-3.86-9.78-3.86s-7.17,1.29-9.73,3.86c-2.55,2.57-3.84,5.89-3.84,9.93s1.27,7.36,3.84,9.93Z"/>
        <path class="cls-4" d="M845.85,621.8c5.36,0,9.8,1.79,13.31,5.38,3.5,3.58,5.26,8.55,5.26,14.88v30.03h-12.68v-28.47c0-3.26-.89-5.76-2.66-7.48-1.77-1.73-4.13-2.6-7.07-2.6-3.27,0-5.89,1.01-7.85,3.03-1.96,2.02-2.95,5.05-2.95,9.1v26.41h-12.68v-48.91h12.68v5.48c3.08-4.57,7.96-6.84,14.64-6.84h0Z"/>
        <path class="cls-4" d="M898.39,635.3h-11.1v20.35c0,1.7.42,2.93,1.27,3.72.85.78,2.09,1.23,3.73,1.32,1.64.1,3.67.08,6.09-.05v11.45c-8.71.97-14.85.16-18.41-2.44-3.57-2.61-5.35-7.28-5.35-13.99v-20.35h-8.55v-12.13h8.55v-9.89l12.68-3.81v13.7h11.1v12.13h0Z"/>
      </g>
    </g>
  </g>
</svg>