<?xml version="1.0" encoding="utf-8" ?>
<svg xmlns="http://www.w3.org/2000/svg" xmlns:xlink="http://www.w3.org/1999/xlink" width="197" height="186" viewBox="0 0 197 186">
	<defs>
		<filter id="filter0492695170" filterUnits="userSpaceOnUse" color-interpolation-filters="sRGB">
			<feComponentTransfer in="SourceAlpha" result="componentTransfer0926410977">
				<feFuncR type="linear" slope="0" intercept="0"/>
				<feFuncG type="linear" slope="0" intercept="0"/>
				<feFuncB type="linear" slope="0" intercept="0"/>
				<feFuncA type="linear" slope="10000" intercept="0"/>
			</feComponentTransfer>
			<feComponentTransfer in="componentTransfer0926410977" result="componentTransfer6237189957">
				<feFuncA type="linear" slope="0.2" intercept="0"/>
			</feComponentTransfer>
			<feOffset dx="0" dy="4" in="componentTransfer6237189957" result="offset5143719044"/>
			<feGaussianBlur stdDeviation="2" in="offset5143719044" result="gaussianBlur6201191702"/>
			<feMerge>
				<feMergeNode in="gaussianBlur6201191702"/>
				<feMergeNode in="SourceGraphic"/>
			</feMerge>
		</filter>
	</defs>
	<g filter="url(#filter0492695170)">
		<path d="M50 0C22.3858 0 0 22.3858 0 50L0 128C0 155.614 22.3858 178 50 178L139 178C166.614 178 189 155.614 189 128L189 50C189 22.3858 166.614 0 139 0L50 0Z" fill-rule="nonzero" transform="matrix(1 0 0 1 4 0)" fill="rgb(246, 244, 244)"/>
		<path d="M-0 50C0 22.3858 22.3858 -0 50 -0L139 0C166.614 0 189 22.3858 189 50L189 128C189 155.614 166.614 178 139 178L50 178C22.3858 178 -0 155.614 -0 128L0 50ZM50 1C22.938 1 1 22.938 1 50L1 128C1 155.062 22.938 177 50 177L139 177C166.062 177 188 155.062 188 128L188 50C188 22.938 166.062 1 139 1L50 1Z" fill-rule="nonzero" transform="matrix(1 0 0 1 4 0)" fill="rgb(236, 70, 48)"/>
	</g>
	<defs>
		<clipPath id="clipPath2403481830">
			<path d="M0 0L99 0L99 99L0 99L0 0Z" fill-rule="nonzero" transform="matrix(1 0 0 1 49 40)"/>
		</clipPath>
	</defs>
	<g clip-path="url(#clipPath2403481830)">
		<defs>
			<linearGradient id="linearGradient7520626658" gradientTransform="matrix(99 0 0 99.0004 0 -49.5002)" gradientUnits="userSpaceOnUse" x1="0" y1="0.5" x2="1" y2="0.5">
				<stop offset="0" stop-color="rgb(25, 33, 79)"/>
				<stop offset="1" stop-color="rgb(236, 70, 48)"/>
			</linearGradient>
		</defs>
		<path d="M98.884 7.39056C98.6696 3.45802 95.542 0.330814 91.6095 0.116185C83.6744 -0.317327 68.1469 0.10439 53.2992 7.78404C45.7301 11.6992 37.725 18.337 31.3366 25.9956C31.2579 26.09 31.1814 26.1849 31.1033 26.2795L16.6052 27.3994C14.2187 27.5839 12.0931 28.8347 10.7733 30.8309L0.882154 45.7915C-0.118868 47.3055 -0.278003 49.2003 0.456183 50.8599C1.19056 52.5197 2.69954 53.6763 4.49295 53.9542L16.7077 55.846C16.6645 56.0835 16.6212 56.3207 16.5816 56.5582C16.175 58.9906 16.9809 61.4916 18.7377 63.2482L35.7518 80.2625C37.2084 81.7191 39.1766 82.5221 41.1933 82.5221C41.6087 82.5221 42.0263 82.4879 42.4421 82.4184C42.6795 82.3788 42.9167 82.3355 43.1542 82.2924L45.046 94.5073C45.3239 96.3007 46.4806 97.8098 48.14 98.544C48.8304 98.8495 49.5612 99.0004 50.2886 99.0004C51.3101 99.0002 52.3244 98.7028 53.2085 98.1183L68.1691 88.227C70.1655 86.9069 71.4162 84.7813 71.6003 82.395L72.7202 67.8971C72.8148 67.819 72.9099 67.7425 73.0042 67.6638C80.663 61.2754 87.301 53.2703 91.216 45.701C98.896 30.8528 99.317 15.3251 98.884 7.39056ZM64.97 83.3879L50.6592 92.8496L48.8154 80.9454C54.8637 79.1671 60.8468 76.3189 66.5468 72.5034L65.8173 81.948C65.7718 82.5372 65.4628 83.0621 64.97 83.3879ZM39.8535 76.1608L22.8393 59.1465C22.4052 58.7122 22.2045 58.1021 22.3029 57.5145C22.8087 54.4898 23.5947 51.6105 24.5677 48.898L50.0966 74.4269C46.8388 75.5938 43.9209 76.2899 41.4855 76.6971C40.8969 76.795 40.2876 76.5948 39.8535 76.1608ZM17.052 33.183L26.4965 32.4534C22.6807 38.1535 19.8325 44.1366 18.0542 50.1849L6.15023 48.3412L15.6121 34.0303C15.9381 33.5372 16.4631 33.2284 17.052 33.183ZM69.289 63.209C64.6034 67.1173 60.055 69.9442 55.8625 71.9898L27.0093 43.1365C29.6888 37.6637 32.9591 33.1064 35.7911 29.7114C41.703 22.6238 49.0559 16.5096 55.9644 12.9363C69.5913 5.88776 83.9484 5.5082 91.2937 5.90806C92.2659 5.96104 93.0392 6.73429 93.0921 7.70669C93.4926 15.052 93.1123 29.409 86.0637 43.036C82.4906 49.9443 76.3764 57.297 69.289 63.209Z" fill-rule="nonzero" transform="matrix(1 0 0 1 49 40)" fill="url(#linearGradient7520626658)"/>
		<defs>
			<linearGradient id="linearGradient2184205116" gradientTransform="matrix(29.0029 0 0 28.9893 0 -14.4947)" gradientUnits="userSpaceOnUse" x1="0" y1="0.5" x2="1" y2="0.5">
				<stop offset="0" stop-color="rgb(25, 33, 79)"/>
				<stop offset="1" stop-color="rgb(236, 70, 48)"/>
			</linearGradient>
		</defs>
		<path d="M14.5016 28.9893C18.2145 28.9889 21.9289 27.5755 24.7556 24.7487C27.4947 22.0098 29.0029 18.3681 29.0029 14.4947C29.0029 10.6213 27.4945 6.9796 24.7556 4.24066C19.1014 -1.41375 9.90136 -1.41336 4.24753 4.24066C1.5084 6.9796 0 10.6213 0 14.4947C0 18.3681 1.50859 22.0098 4.24753 24.7487C7.07483 27.576 10.7873 28.9897 14.5016 28.9893ZM8.34887 8.3422C10.045 6.64586 12.2731 5.79779 14.5012 5.79779C16.7295 5.79779 18.9575 6.64586 20.6537 8.3422C22.297 9.98556 23.202 12.1705 23.202 14.4945C23.202 16.8185 22.297 19.0037 20.6537 20.647C17.2614 24.0395 11.7412 24.0393 8.34868 20.647C6.70532 19.0037 5.8002 16.8187 5.8002 14.4947C5.8002 12.1707 6.70551 9.98556 8.34887 8.3422Z" fill-rule="nonzero" transform="matrix(1 0 0 1 102.314 56.6905)" fill="url(#linearGradient2184205116)"/>
		<defs>
			<linearGradient id="linearGradient2843564997" gradientTransform="matrix(15.27 0 0 15.2703 0 -7.63513)" gradientUnits="userSpaceOnUse" x1="0" y1="0.5" x2="1" y2="0.5">
				<stop offset="0" stop-color="rgb(25, 33, 79)"/>
				<stop offset="1" stop-color="rgb(236, 70, 48)"/>
			</linearGradient>
		</defs>
		<path d="M2.90029 15.2703C3.6426 15.2703 4.38491 14.9872 4.95106 14.4206L14.4205 4.95126C15.5532 3.81856 15.5532 1.98222 14.4205 0.849523C13.2879 -0.283176 11.4514 -0.283176 10.3187 0.849523L0.849524 10.3189C-0.283175 11.4516 -0.283175 13.2879 0.849524 14.4206C1.41568 14.987 2.15799 15.2703 2.90029 15.2703Z" fill-rule="nonzero" transform="matrix(1 0 0 1 49.0583 106.315)" fill="url(#linearGradient2843564997)"/>
		<defs>
			<linearGradient id="linearGradient2079700885" gradientTransform="matrix(24.0063 0 0 24.0064 0 -12.0032)" gradientUnits="userSpaceOnUse" x1="0" y1="0.5" x2="1" y2="0.5">
				<stop offset="0" stop-color="rgb(25, 33, 79)"/>
				<stop offset="1" stop-color="rgb(236, 70, 48)"/>
			</linearGradient>
		</defs>
		<path d="M23.1568 0.849523C22.0243 -0.283176 20.1878 -0.283176 19.0551 0.849523L0.849524 19.0553C-0.283175 20.188 -0.283175 22.0243 0.849524 23.157C1.41587 23.7234 2.15799 24.0064 2.90029 24.0064C3.6426 24.0064 4.38491 23.7234 4.95106 23.1568L23.1566 4.95125C24.2895 3.81855 24.2895 1.98222 23.1568 0.849523Z" fill-rule="nonzero" transform="matrix(1 0 0 1 49.0001 114.994)" fill="url(#linearGradient2079700885)"/>
		<defs>
			<linearGradient id="linearGradient1900026052" gradientTransform="matrix(15.27 0 0 15.2703 0 -7.63513)" gradientUnits="userSpaceOnUse" x1="0" y1="0.5" x2="1" y2="0.5">
				<stop offset="0" stop-color="rgb(25, 33, 79)"/>
				<stop offset="1" stop-color="rgb(236, 70, 48)"/>
			</linearGradient>
		</defs>
		<path d="M10.3189 0.849523L0.849525 10.3189C-0.283175 11.4516 -0.283175 13.2879 0.849525 14.4206C1.41587 14.987 2.15818 15.2703 2.9003 15.2703C3.64241 15.2703 4.38491 14.9872 4.95107 14.4206L14.4205 4.95126C15.5532 3.81856 15.5532 1.98222 14.4205 0.849523C13.288 -0.283176 11.4514 -0.283176 10.3189 0.849523Z" fill-rule="nonzero" transform="matrix(1 0 0 1 66.4144 123.672)" fill="url(#linearGradient1900026052)"/>
	</g>
</svg>
